<mxfile host="app.diagrams.net" agent="Mozilla/5.0 (Windows NT 10.0; Win64; x64) AppleWebKit/537.36 (KHTML, like Gecko) Chrome/128.0.0.0 Safari/537.36" version="24.7.8">
  <diagram name="Page-1" id="3LRJq9pz1OymjmmiZ-6w">
    <mxGraphModel dx="2720" dy="1462" grid="1" gridSize="10" guides="1" tooltips="1" connect="1" arrows="1" fold="1" page="1" pageScale="1" pageWidth="1100" pageHeight="850" math="0" shadow="0">
      <root>
        <mxCell id="0" />
        <mxCell id="1" parent="0" />
        <mxCell id="0peE9M5p-CBohG688vTI-38" style="edgeStyle=orthogonalEdgeStyle;rounded=0;orthogonalLoop=1;jettySize=auto;html=1;startArrow=classic;startFill=1;" edge="1" parent="1" source="0peE9M5p-CBohG688vTI-1" target="0peE9M5p-CBohG688vTI-12">
          <mxGeometry relative="1" as="geometry" />
        </mxCell>
        <mxCell id="0peE9M5p-CBohG688vTI-1" value="Core Banking" style="whiteSpace=wrap;html=1;aspect=fixed;" vertex="1" parent="1">
          <mxGeometry x="160" y="280" width="180" height="180" as="geometry" />
        </mxCell>
        <mxCell id="0peE9M5p-CBohG688vTI-35" style="edgeStyle=orthogonalEdgeStyle;rounded=0;orthogonalLoop=1;jettySize=auto;html=1;entryX=0;entryY=0.5;entryDx=0;entryDy=0;startArrow=classic;startFill=1;" edge="1" parent="1" source="0peE9M5p-CBohG688vTI-2" target="0peE9M5p-CBohG688vTI-33">
          <mxGeometry relative="1" as="geometry">
            <Array as="points">
              <mxPoint x="910" y="220" />
            </Array>
          </mxGeometry>
        </mxCell>
        <mxCell id="0peE9M5p-CBohG688vTI-36" style="edgeStyle=orthogonalEdgeStyle;rounded=0;orthogonalLoop=1;jettySize=auto;html=1;entryX=0;entryY=0.25;entryDx=0;entryDy=0;startArrow=classic;startFill=1;" edge="1" parent="1" source="0peE9M5p-CBohG688vTI-2" target="0peE9M5p-CBohG688vTI-34">
          <mxGeometry relative="1" as="geometry">
            <Array as="points">
              <mxPoint x="1420" y="300" />
            </Array>
          </mxGeometry>
        </mxCell>
        <mxCell id="0peE9M5p-CBohG688vTI-41" style="edgeStyle=orthogonalEdgeStyle;rounded=0;orthogonalLoop=1;jettySize=auto;html=1;startArrow=classic;startFill=1;" edge="1" parent="1" source="0peE9M5p-CBohG688vTI-2" target="0peE9M5p-CBohG688vTI-7">
          <mxGeometry relative="1" as="geometry" />
        </mxCell>
        <mxCell id="0peE9M5p-CBohG688vTI-2" value="Switch CSC Bank of Lubenon" style="whiteSpace=wrap;html=1;aspect=fixed;" vertex="1" parent="1">
          <mxGeometry x="820" y="280" width="180" height="180" as="geometry" />
        </mxCell>
        <mxCell id="0peE9M5p-CBohG688vTI-30" style="edgeStyle=orthogonalEdgeStyle;rounded=0;orthogonalLoop=1;jettySize=auto;html=1;entryX=0.5;entryY=1;entryDx=0;entryDy=0;startArrow=classicThin;startFill=1;flowAnimation=1;fillColor=#f8cecc;strokeColor=#b85450;" edge="1" parent="1" source="0peE9M5p-CBohG688vTI-3" target="0peE9M5p-CBohG688vTI-29">
          <mxGeometry relative="1" as="geometry" />
        </mxCell>
        <mxCell id="0peE9M5p-CBohG688vTI-3" value="ATMs" style="whiteSpace=wrap;html=1;aspect=fixed;" vertex="1" parent="1">
          <mxGeometry x="880" y="700" width="80" height="80" as="geometry" />
        </mxCell>
        <mxCell id="0peE9M5p-CBohG688vTI-5" value="Credit&amp;nbsp;" style="whiteSpace=wrap;html=1;aspect=fixed;" vertex="1" parent="1">
          <mxGeometry x="730" y="60" width="80" height="80" as="geometry" />
        </mxCell>
        <mxCell id="0peE9M5p-CBohG688vTI-24" style="edgeStyle=orthogonalEdgeStyle;rounded=0;orthogonalLoop=1;jettySize=auto;html=1;entryX=0;entryY=0.5;entryDx=0;entryDy=0;" edge="1" parent="1" source="0peE9M5p-CBohG688vTI-6" target="0peE9M5p-CBohG688vTI-23">
          <mxGeometry relative="1" as="geometry" />
        </mxCell>
        <mxCell id="0peE9M5p-CBohG688vTI-6" value="Debit" style="whiteSpace=wrap;html=1;aspect=fixed;" vertex="1" parent="1">
          <mxGeometry x="930" y="60" width="80" height="80" as="geometry" />
        </mxCell>
        <mxCell id="0peE9M5p-CBohG688vTI-9" style="edgeStyle=orthogonalEdgeStyle;rounded=0;orthogonalLoop=1;jettySize=auto;html=1;entryX=0.19;entryY=-0.019;entryDx=0;entryDy=0;entryPerimeter=0;startArrow=classic;startFill=1;" edge="1" parent="1" source="0peE9M5p-CBohG688vTI-5" target="0peE9M5p-CBohG688vTI-2">
          <mxGeometry relative="1" as="geometry" />
        </mxCell>
        <mxCell id="0peE9M5p-CBohG688vTI-10" style="edgeStyle=orthogonalEdgeStyle;rounded=0;orthogonalLoop=1;jettySize=auto;html=1;entryX=0.834;entryY=0.018;entryDx=0;entryDy=0;entryPerimeter=0;startArrow=classic;startFill=1;" edge="1" parent="1" source="0peE9M5p-CBohG688vTI-6" target="0peE9M5p-CBohG688vTI-2">
          <mxGeometry relative="1" as="geometry" />
        </mxCell>
        <mxCell id="0peE9M5p-CBohG688vTI-37" style="edgeStyle=orthogonalEdgeStyle;rounded=0;orthogonalLoop=1;jettySize=auto;html=1;entryX=0;entryY=0.5;entryDx=0;entryDy=0;startArrow=classic;startFill=1;" edge="1" parent="1" source="0peE9M5p-CBohG688vTI-12" target="0peE9M5p-CBohG688vTI-2">
          <mxGeometry relative="1" as="geometry" />
        </mxCell>
        <mxCell id="0peE9M5p-CBohG688vTI-12" value="Conversion xml ISO8583" style="whiteSpace=wrap;html=1;aspect=fixed;" vertex="1" parent="1">
          <mxGeometry x="510" y="330" width="80" height="80" as="geometry" />
        </mxCell>
        <mxCell id="0peE9M5p-CBohG688vTI-15" value="POS" style="whiteSpace=wrap;html=1;aspect=fixed;" vertex="1" parent="1">
          <mxGeometry x="1080" y="550" width="80" height="80" as="geometry" />
        </mxCell>
        <mxCell id="0peE9M5p-CBohG688vTI-17" style="edgeStyle=orthogonalEdgeStyle;rounded=0;orthogonalLoop=1;jettySize=auto;html=1;entryX=0.5;entryY=1;entryDx=0;entryDy=0;startArrow=classic;startFill=1;" edge="1" parent="1" source="0peE9M5p-CBohG688vTI-16" target="0peE9M5p-CBohG688vTI-15">
          <mxGeometry relative="1" as="geometry" />
        </mxCell>
        <mxCell id="0peE9M5p-CBohG688vTI-16" value="POS Terminals" style="whiteSpace=wrap;html=1;aspect=fixed;" vertex="1" parent="1">
          <mxGeometry x="1080" y="710" width="80" height="80" as="geometry" />
        </mxCell>
        <mxCell id="0peE9M5p-CBohG688vTI-23" value="HSM" style="rounded=0;whiteSpace=wrap;html=1;" vertex="1" parent="1">
          <mxGeometry x="1070" y="75" width="50" height="50" as="geometry" />
        </mxCell>
        <mxCell id="0peE9M5p-CBohG688vTI-29" value="ATM Gate" style="whiteSpace=wrap;html=1;aspect=fixed;" vertex="1" parent="1">
          <mxGeometry x="880" y="550" width="80" height="80" as="geometry" />
        </mxCell>
        <mxCell id="0peE9M5p-CBohG688vTI-31" style="edgeStyle=orthogonalEdgeStyle;rounded=0;orthogonalLoop=1;jettySize=auto;html=1;entryX=0.558;entryY=0.997;entryDx=0;entryDy=0;entryPerimeter=0;startArrow=classicThin;startFill=1;flowAnimation=1;fillColor=#f8cecc;strokeColor=#b85450;" edge="1" parent="1" source="0peE9M5p-CBohG688vTI-29" target="0peE9M5p-CBohG688vTI-2">
          <mxGeometry relative="1" as="geometry" />
        </mxCell>
        <mxCell id="0peE9M5p-CBohG688vTI-32" style="edgeStyle=orthogonalEdgeStyle;rounded=0;orthogonalLoop=1;jettySize=auto;html=1;entryX=0.944;entryY=1;entryDx=0;entryDy=0;entryPerimeter=0;startArrow=classicThin;startFill=1;" edge="1" parent="1" source="0peE9M5p-CBohG688vTI-15" target="0peE9M5p-CBohG688vTI-2">
          <mxGeometry relative="1" as="geometry" />
        </mxCell>
        <mxCell id="0peE9M5p-CBohG688vTI-33" value="MC" style="whiteSpace=wrap;html=1;aspect=fixed;" vertex="1" parent="1">
          <mxGeometry x="1420" y="180" width="80" height="80" as="geometry" />
        </mxCell>
        <mxCell id="0peE9M5p-CBohG688vTI-34" value="VISA" style="whiteSpace=wrap;html=1;aspect=fixed;" vertex="1" parent="1">
          <mxGeometry x="1420" y="280" width="80" height="80" as="geometry" />
        </mxCell>
        <mxCell id="0peE9M5p-CBohG688vTI-39" value="" style="swimlane;startSize=0;" vertex="1" parent="1">
          <mxGeometry x="640" y="20" width="640" height="810" as="geometry" />
        </mxCell>
        <mxCell id="0peE9M5p-CBohG688vTI-7" value="Prepaid" style="whiteSpace=wrap;html=1;aspect=fixed;" vertex="1" parent="0peE9M5p-CBohG688vTI-39">
          <mxGeometry x="480" y="310" width="80" height="80" as="geometry" />
        </mxCell>
      </root>
    </mxGraphModel>
  </diagram>
</mxfile>
